<?xml version="1.0" standalone="no"?><!DOCTYPE svg PUBLIC "-//W3C//DTD SVG 1.1//EN" "http://www.w3.org/Graphics/SVG/1.1/DTD/svg11.dtd"><svg t="1648693237711" class="icon" viewBox="0 0 1024 1024" version="1.1" xmlns="http://www.w3.org/2000/svg" p-id="2266" xmlns:xlink="http://www.w3.org/1999/xlink" width="200" height="200"><defs><style type="text/css"></style></defs><path d="M383.044267 269.277867m30.344533 0l60.672 0q30.344533 0 30.344533 30.344533l0 0q0 30.344533-30.344533 30.344533l-60.672 0q-30.344533 0-30.344533-30.344533l0 0q0-30.344533 30.344533-30.344533Z" fill="#444444" p-id="2267"></path><path d="M383.044267 405.8112m30.344533 0l60.672 0q30.344533 0 30.344533 30.344533l0 0q0 30.344533-30.344533 30.344534l-60.672 0q-30.344533 0-30.344533-30.344534l0 0q0-30.344533 30.344533-30.344533Z" fill="#444444" p-id="2268"></path><path d="M507.562667 68.334933a147.9168 147.9168 0 0 0-143.479467 147.848534v312.951466l-4.283733 3.464534A238.557867 238.557867 0 0 0 273.066667 716.8c0 131.959467 106.973867 238.933333 238.933333 238.933333s238.933333-106.973867 238.933333-238.933333l-0.085333-6.1952a238.5408 238.5408 0 0 0-86.647467-178.005333l-4.3008-3.464534V216.183467A147.9168 147.9168 0 0 0 512 68.266667l-4.437333 0.068266zM512 136.533333a79.650133 79.650133 0 0 1 79.650133 79.650134V546.474667a34.133333 34.133333 0 0 0 15.138134 28.3648A170.4448 170.4448 0 0 1 682.666667 716.8c0 94.2592-76.407467 170.666667-170.666667 170.666667S341.333333 811.0592 341.333333 716.8c0-57.685333 28.808533-110.421333 75.8784-141.943467a34.133333 34.133333 0 0 0 15.138134-28.3648V216.183467A79.650133 79.650133 0 0 1 512 136.533333z" fill="#444444" p-id="2269"></path><path d="M426.666667 665.6a34.133333 34.133333 0 0 1 34.133333 34.389333l0.085333 3.072a64.477867 64.477867 0 0 0 64.392534 61.149867v68.266667l-4.215467-0.068267A132.744533 132.744533 0 0 1 392.533333 699.733333l0.085334-2.56A34.133333 34.133333 0 0 1 426.666667 665.6z" fill="#00B386" p-id="2270"></path></svg>