<?xml version="1.0" standalone="no"?><!DOCTYPE svg PUBLIC "-//W3C//DTD SVG 1.1//EN" "http://www.w3.org/Graphics/SVG/1.1/DTD/svg11.dtd"><svg t="1650281276810" class="icon" viewBox="0 0 1024 1024" version="1.1" xmlns="http://www.w3.org/2000/svg" p-id="2660" xmlns:xlink="http://www.w3.org/1999/xlink" width="200" height="200"><defs><style type="text/css"></style></defs><path d="M205.312 987.648c-16.384 0-28.672-12.288-28.672-28.672v-285.696c0-19.456 15.872-35.328 35.328-35.328h107.52v-111.104H57.344v362.496c0 16.384-12.288 28.672-28.672 28.672S0 905.216 0 888.832V502.784c0-18.432 14.848-33.28 33.28-33.28h286.208V348.672H123.392c-21.504 0-38.912-17.408-38.912-38.912V65.536c0-16.384 12.288-28.672 28.672-28.672s28.672 12.288 28.672 28.672v225.28h176.64V210.432c0-28.16 23.04-51.2 51.2-51.2H972.8c28.16 0 51.2 23.04 51.2 51.2v592.896c0 28.16-23.04 51.2-51.2 51.2H370.688c-28.16 0-51.2-23.04-51.2-51.2v-108.544H233.984v263.68c0 16.384-12.288 29.184-28.672 29.184z m768-183.808V208.896H368.128V803.84h605.184z" fill="#2C2C2C" p-id="2661"></path><path d="M463.872 307.712c0 24.064 19.456 43.52 43.52 43.52s43.52-19.456 43.52-43.52-19.456-43.52-43.52-43.52-43.52 19.456-43.52 43.52z" fill="#2C2C2C" p-id="2662"></path><path d="M507.392 443.392m-43.52 0a43.52 43.52 0 1 0 87.04 0 43.52 43.52 0 1 0-87.04 0Z" fill="#2C2C2C" p-id="2663"></path><path d="M463.872 578.56c0 24.064 19.456 43.52 43.52 43.52s43.52-19.456 43.52-43.52-19.456-43.52-43.52-43.52-43.52 19.456-43.52 43.52z" fill="#2C2C2C" p-id="2664"></path><path d="M507.392 714.24m-43.52 0a43.52 43.52 0 1 0 87.04 0 43.52 43.52 0 1 0-87.04 0Z" fill="#2C2C2C" p-id="2665"></path></svg>